<?xml version="1.0" encoding="utf-8"?>
<!-- Generator: Adobe Illustrator 16.0.0, SVG Export Plug-In . SVG Version: 6.00 Build 0)  -->
<!DOCTYPE svg PUBLIC "-//W3C//DTD SVG 1.1//EN" "http://www.w3.org/Graphics/SVG/1.1/DTD/svg11.dtd">
<svg version="1.1" id="Layer_1" xmlns="http://www.w3.org/2000/svg" xmlns:xlink="http://www.w3.org/1999/xlink" x="0px" y="0px"
	 width="250px" height="250px" viewBox="0 0 250 250" enable-background="new 0 0 250 250" xml:space="preserve">
<path fill="none" stroke="#231F20" stroke-miterlimit="10" d="M136.5,63c0,0,16.385-38.649-14-36c-8.363,0.729-10,7-10,7
	S99,27,95.75,38.75c0,0-13-1-11.25,9.25c0,0-10.25-2.5-11.5,5c0,0-12.23,1-11,14c1.038,10.962-1.363,39.311,0,51
	c1.75,15,8,31.5,9,36.5s1.95,20.003,2.5,28.5c0.568,8.776,2.25,27.75,9.5,35s27.135,5.18,35-2.25s12.45-16.514,8.5-41.75
	c-1.046-6.685-5.396-20.979-5.5-26.5s-1.5-10.801,4.5-23.65s16.875-23.362,15.848-36.35C140.855,81.275,140,73,136.5,63z"/>
<g>
	<g>
		<line fill="none" stroke="#231F20" stroke-miterlimit="10" x1="187" y1="27.954" x2="187" y2="222.498"/>
		<g>
			<polygon fill="#231F20" points="182.91,31.268 183.643,31.95 186.999,28.338 190.356,31.95 191.089,31.268 186.999,26.87 			"/>
		</g>
	</g>
</g>
<g>
	<g>
		<line fill="none" stroke="#231F20" stroke-miterlimit="10" x1="187" y1="221.412" x2="187" y2="26.869"/>
		<g>
			<polygon fill="#231F20" points="191.09,218.1 190.357,217.417 187.001,221.029 183.644,217.417 182.911,218.1 187.001,222.497 
							"/>
		</g>
	</g>
</g>
<g>
	<g>
		<line fill="none" stroke="#231F20" stroke-miterlimit="10" x1="127.5" y1="26.87" x2="133.5" y2="26.87"/>
		
			<line fill="none" stroke="#231F20" stroke-miterlimit="10" stroke-dasharray="9.4,9.4" x1="142.9" y1="26.87" x2="175.8" y2="26.87"/>
		<line fill="none" stroke="#231F20" stroke-miterlimit="10" x1="180.5" y1="26.87" x2="186.5" y2="26.87"/>
	</g>
</g>
<g>
	<g>
		<line fill="none" stroke="#231F20" stroke-miterlimit="10" x1="94.5" y1="222.87" x2="100.5" y2="222.87"/>
		
			<line fill="none" stroke="#231F20" stroke-miterlimit="10" stroke-dasharray="11.4286,11.4286" x1="111.929" y1="222.87" x2="174.786" y2="222.87"/>
		<line fill="none" stroke="#231F20" stroke-miterlimit="10" x1="180.5" y1="222.87" x2="186.5" y2="222.87"/>
	</g>
</g>
<circle fill="#231F20" cx="99.065" cy="222.436" r="3.627"/>
<circle fill="#231F20" cx="127.5" cy="26.871" r="3.627"/>
</svg>
